<svg width="138" height="68" viewBox="0 0 138 68" fill="none" xmlns="http://www.w3.org/2000/svg">
<g filter="url(#filter0_d_4_167)">
<path d="M68.4207 25.8519C69.0514 25.8519 69.653 25.7306 70.2256 25.488C70.7981 25.2357 71.2784 24.8913 71.6666 24.4546L72.3943 25.2115C71.8897 25.7355 71.2881 26.1479 70.5894 26.4487C69.8908 26.7398 69.1582 26.8854 68.3916 26.8854C67.6541 26.8854 66.9603 26.7495 66.3101 26.4778C65.6697 26.2061 65.1117 25.8374 64.6362 25.3716C64.1608 24.8961 63.7872 24.3382 63.5155 23.6977C63.2438 23.0476 63.1079 22.3586 63.1079 21.6308C63.1079 20.903 63.2438 20.2189 63.5155 19.5785C63.7872 18.9284 64.1608 18.3704 64.6362 17.9046C65.1117 17.4291 65.6697 17.0555 66.3101 16.7838C66.9603 16.5121 67.6541 16.3763 68.3916 16.3763C69.1776 16.3763 69.9199 16.5267 70.6186 16.8275C71.3269 17.1186 71.9286 17.5262 72.4234 18.0502L71.6811 18.8362C71.2833 18.3898 70.7884 18.0405 70.1965 17.7882C69.6142 17.5359 69.0126 17.4097 68.3916 17.4097C67.8093 17.4097 67.2611 17.5213 66.7468 17.7445C66.2422 17.958 65.8055 18.2539 65.4368 18.6324C65.0681 19.0011 64.7769 19.4475 64.5635 19.9715C64.35 20.4858 64.2432 21.0389 64.2432 21.6308C64.2432 22.2228 64.35 22.7807 64.5635 23.3047C64.7769 23.819 65.0681 24.2654 65.4368 24.6438C65.8152 25.0126 66.2568 25.3085 66.7613 25.5317C67.2756 25.7452 67.8288 25.8519 68.4207 25.8519Z" fill="#3FA652"/>
<path d="M73.2698 23.0718C73.2698 22.5478 73.3669 22.0529 73.5609 21.5872C73.755 21.1214 74.017 20.7187 74.3469 20.3791C74.6866 20.0394 75.0844 19.7726 75.5405 19.5785C75.9966 19.3844 76.4817 19.2874 76.996 19.2874C77.5103 19.2874 77.9907 19.3844 78.437 19.5785C78.8931 19.7726 79.2861 20.0394 79.616 20.3791C79.9557 20.7187 80.2225 21.1214 80.4166 21.5872C80.6107 22.0529 80.7077 22.5478 80.7077 23.0718C80.7077 23.6055 80.6107 24.1053 80.4166 24.571C80.2225 25.0368 79.9557 25.4395 79.616 25.7792C79.2861 26.1188 78.8931 26.3856 78.437 26.5797C77.9907 26.7738 77.5103 26.8708 76.996 26.8708C76.4817 26.8708 75.9966 26.7738 75.5405 26.5797C75.0844 26.3856 74.6866 26.1188 74.3469 25.7792C74.017 25.4395 73.755 25.0368 73.5609 24.571C73.3669 24.1053 73.2698 23.6055 73.2698 23.0718ZM76.996 25.9101C77.3648 25.9101 77.7093 25.8374 78.0295 25.6918C78.3594 25.5463 78.6408 25.3473 78.8737 25.095C79.1163 24.833 79.3055 24.5322 79.4414 24.1926C79.5772 23.8433 79.6451 23.4697 79.6451 23.0718C79.6451 22.674 79.5772 22.3052 79.4414 21.9656C79.3055 21.6163 79.1163 21.3155 78.8737 21.0632C78.6408 20.8109 78.3594 20.6119 78.0295 20.4664C77.7093 20.3208 77.3648 20.2481 76.996 20.2481C76.6273 20.2481 76.278 20.3208 75.948 20.4664C75.6278 20.6119 75.3464 20.8109 75.1038 21.0632C74.8709 21.3155 74.6817 21.6163 74.5362 21.9656C74.4003 22.3052 74.3324 22.674 74.3324 23.0718C74.3324 23.4697 74.4003 23.8433 74.5362 24.1926C74.672 24.5322 74.8564 24.833 75.0893 25.095C75.3319 25.3473 75.6181 25.5463 75.948 25.6918C76.278 25.8374 76.6273 25.9101 76.996 25.9101Z" fill="#3FA652"/>
<path d="M82.2043 26.7253V19.4329H83.2814V20.2335C83.5531 19.923 83.8685 19.6901 84.2275 19.5348C84.5866 19.3699 84.9844 19.2874 85.4211 19.2874C85.9257 19.2874 86.3769 19.4087 86.7747 19.6513C87.1823 19.8842 87.4977 20.2044 87.7208 20.6119C88.0217 20.1656 88.3807 19.8356 88.798 19.6222C89.2249 19.399 89.7004 19.2874 90.2244 19.2874C91.0104 19.2874 91.6508 19.5494 92.1457 20.0734C92.6503 20.5974 92.9026 21.2766 92.9026 22.1112V26.7253H91.8401V22.3295C91.8401 21.689 91.6702 21.1796 91.3306 20.8012C90.991 20.4227 90.5301 20.2335 89.9478 20.2335C89.55 20.2335 89.1861 20.3354 88.8562 20.5392C88.5262 20.7429 88.2448 21.0389 88.012 21.427C88.0314 21.5338 88.0459 21.6454 88.0556 21.7618C88.075 21.8686 88.0847 21.985 88.0847 22.1112V26.7253H87.0222V22.3295C87.0222 21.689 86.8524 21.1796 86.5127 20.8012C86.1731 20.4227 85.717 20.2335 85.1445 20.2335C84.7564 20.2335 84.4022 20.3257 84.082 20.5101C83.7714 20.6847 83.5046 20.9467 83.2814 21.296V26.7253H82.2043Z" fill="#3FA652"/>
<path d="M94.713 26.7253V19.4329H95.7901V20.2335C96.0618 19.923 96.3771 19.6901 96.7362 19.5348C97.0952 19.3699 97.4931 19.2874 97.9297 19.2874C98.4343 19.2874 98.8855 19.4087 99.2834 19.6513C99.6909 19.8842 100.006 20.2044 100.229 20.6119C100.53 20.1656 100.889 19.8356 101.307 19.6222C101.734 19.399 102.209 19.2874 102.733 19.2874C103.519 19.2874 104.159 19.5494 104.654 20.0734C105.159 20.5974 105.411 21.2766 105.411 22.1112V26.7253H104.349V22.3295C104.349 21.689 104.179 21.1796 103.839 20.8012C103.5 20.4227 103.039 20.2335 102.456 20.2335C102.059 20.2335 101.695 20.3354 101.365 20.5392C101.035 20.7429 100.753 21.0389 100.521 21.427C100.54 21.5338 100.555 21.6454 100.564 21.7618C100.584 21.8686 100.593 21.985 100.593 22.1112V26.7253H99.5308V22.3295C99.5308 21.689 99.361 21.1796 99.0214 20.8012C98.6818 20.4227 98.2257 20.2335 97.6532 20.2335C97.265 20.2335 96.9108 20.3257 96.5906 20.5101C96.2801 20.6847 96.0132 20.9467 95.7901 21.296V26.7253H94.713Z" fill="#3FA652"/>
<path d="M108.184 19.4329V23.8287C108.184 24.4692 108.368 24.9786 108.737 25.357C109.106 25.7355 109.601 25.9247 110.222 25.9247C110.658 25.9247 111.047 25.8277 111.386 25.6336C111.736 25.4298 112.017 25.1484 112.23 24.7894V19.4329H113.308V26.7253H112.23V25.881C111.949 26.211 111.614 26.4584 111.226 26.6234C110.848 26.7883 110.421 26.8708 109.945 26.8708C109.111 26.8708 108.431 26.6088 107.907 26.0848C107.383 25.5608 107.121 24.8816 107.121 24.047V19.4329H108.184Z" fill="#3FA652"/>
<path d="M115.139 26.7253V19.4329H116.216V20.2917C116.498 19.9618 116.832 19.7143 117.22 19.5494C117.609 19.3747 118.04 19.2874 118.516 19.2874C119.341 19.2874 120.015 19.5494 120.539 20.0734C121.063 20.5974 121.325 21.2766 121.325 22.1112V26.7253H120.263V22.3295C120.263 21.689 120.078 21.1796 119.709 20.8012C119.341 20.4227 118.846 20.2335 118.225 20.2335C117.788 20.2335 117.395 20.3305 117.046 20.5246C116.706 20.7187 116.43 20.9952 116.216 21.3543V26.7253H115.139Z" fill="#3FA652"/>
<path d="M123.666 18.0356C123.472 18.0356 123.302 17.9628 123.157 17.8173C123.011 17.6717 122.938 17.5019 122.938 17.3078C122.938 17.1041 123.011 16.9342 123.157 16.7984C123.302 16.6528 123.472 16.5801 123.666 16.5801C123.87 16.5801 124.04 16.6528 124.175 16.7984C124.321 16.9342 124.394 17.1041 124.394 17.3078C124.394 17.5019 124.321 17.6717 124.175 17.8173C124.04 17.9628 123.87 18.0356 123.666 18.0356ZM124.205 19.4329V26.7253H123.127V19.4329H124.205Z" fill="#3FA652"/>
<path d="M126.944 25.095V20.3499H125.372V19.4329H126.944V17.5844L128.006 17.3078V19.4329H130.204V20.3499H128.006V24.8185C128.006 25.2066 128.094 25.488 128.268 25.6627C128.443 25.8277 128.729 25.9101 129.127 25.9101C129.331 25.9101 129.511 25.8956 129.666 25.8665C129.831 25.8374 130.005 25.7889 130.19 25.7209V26.667C130.005 26.735 129.797 26.7835 129.564 26.8126C129.341 26.8417 129.122 26.8563 128.909 26.8563C128.278 26.8563 127.793 26.7059 127.453 26.405C127.114 26.1042 126.944 25.6676 126.944 25.095Z" fill="#3FA652"/>
<path d="M133.203 27.6714L133.625 26.7107L130.656 19.4329H131.849L134.207 25.4153L136.754 19.4329H137.919L134.294 27.8169C133.984 28.5156 133.639 29.0202 133.261 29.3307C132.883 29.6412 132.402 29.7965 131.82 29.7965C131.684 29.7965 131.553 29.7868 131.427 29.7674C131.311 29.7577 131.214 29.7431 131.136 29.7237V28.7485C131.233 28.7679 131.325 28.7824 131.412 28.7921C131.509 28.8018 131.621 28.8067 131.747 28.8067C132.077 28.8067 132.359 28.7145 132.591 28.5301C132.824 28.3458 133.028 28.0595 133.203 27.6714Z" fill="#3FA652"/>
</g>
<g filter="url(#filter1_d_4_167)">
<path d="M67.4795 37.7147L68.2218 36.9432C68.7458 37.4963 69.3038 37.9185 69.8957 38.2096C70.4973 38.491 71.1281 38.6317 71.7879 38.6317C72.5836 38.6317 73.2386 38.4425 73.7529 38.064C74.2672 37.6856 74.5244 37.2052 74.5244 36.623C74.5244 36.099 74.34 35.6963 73.9713 35.4149C73.6122 35.1335 73.0154 34.9249 72.1809 34.789L70.7108 34.5561C69.7307 34.4009 69.0078 34.1146 68.542 33.6974C68.0763 33.2704 67.8434 32.6979 67.8434 31.9798C67.8434 31.1356 68.1733 30.4515 68.8332 29.9275C69.493 29.4035 70.3566 29.1415 71.424 29.1415C72.1324 29.1415 72.8359 29.2579 73.5346 29.4908C74.2333 29.7237 74.8688 30.0585 75.4414 30.4951L74.8009 31.3685C74.2478 30.9512 73.685 30.6358 73.1125 30.4224C72.54 30.2089 71.9626 30.1021 71.3804 30.1021C70.6526 30.1021 70.0607 30.272 69.6046 30.6116C69.1582 30.9415 68.935 31.3685 68.935 31.8925C68.935 32.368 69.0952 32.7318 69.4154 32.9841C69.7356 33.2364 70.2644 33.4208 71.0019 33.5372L72.4575 33.7701C73.5637 33.9545 74.3691 34.2699 74.8737 34.7162C75.388 35.1626 75.6451 35.7788 75.6451 36.5648C75.6451 37.0112 75.5481 37.4236 75.354 37.802C75.1697 38.1708 74.9028 38.491 74.5535 38.7627C74.2138 39.0247 73.8014 39.2333 73.3163 39.3886C72.8408 39.5341 72.3168 39.6069 71.7443 39.6069C70.9389 39.6069 70.1626 39.4468 69.4154 39.1266C68.6779 38.7966 68.0326 38.326 67.4795 37.7147Z" fill="#3FA652"/>
<path d="M80.5121 38.6171C80.9003 38.6171 81.2739 38.5395 81.6329 38.3842C81.992 38.229 82.3267 38.0009 82.6372 37.7001L83.3068 38.4279C82.9187 38.7966 82.482 39.0829 81.9968 39.2867C81.5116 39.4905 81.007 39.5923 80.483 39.5923C79.9687 39.5923 79.4836 39.4953 79.0275 39.3012C78.5714 39.1072 78.1784 38.8403 77.8485 38.5007C77.5186 38.1611 77.2566 37.7583 77.0625 37.2926C76.8684 36.8268 76.7714 36.3319 76.7714 35.8079C76.7714 35.2839 76.8684 34.7939 77.0625 34.3378C77.2566 33.872 77.5186 33.4693 77.8485 33.1297C78.1784 32.7901 78.5714 32.5232 79.0275 32.3291C79.4836 32.1254 79.9687 32.0235 80.483 32.0235C81.007 32.0235 81.5165 32.1254 82.0114 32.3291C82.516 32.5329 82.9575 32.8143 83.3359 33.1734L82.6518 33.9594C82.3607 33.6585 82.0259 33.4257 81.6475 33.2607C81.269 33.0957 80.8857 33.0132 80.4976 33.0132C80.1288 33.0132 79.7795 33.086 79.4496 33.2316C79.1197 33.3771 78.8334 33.5761 78.5908 33.8284C78.3579 34.0807 78.1736 34.3766 78.0377 34.7162C77.9019 35.0559 77.8339 35.4198 77.8339 35.8079C77.8339 36.2058 77.9019 36.5794 78.0377 36.9287C78.1833 37.2683 78.3725 37.5643 78.6054 37.8166C78.848 38.0592 79.1342 38.2532 79.4641 38.3988C79.7941 38.5443 80.1434 38.6171 80.5121 38.6171Z" fill="#3FA652"/>
<path d="M85.1073 30.7717C84.9132 30.7717 84.7434 30.6989 84.5978 30.5534C84.4523 30.4078 84.3795 30.238 84.3795 30.0439C84.3795 29.8401 84.4523 29.6703 84.5978 29.5345C84.7434 29.3889 84.9132 29.3161 85.1073 29.3161C85.311 29.3161 85.4808 29.3889 85.6167 29.5345C85.7623 29.6703 85.835 29.8401 85.835 30.0439C85.835 30.238 85.7623 30.4078 85.6167 30.5534C85.4808 30.6989 85.311 30.7717 85.1073 30.7717ZM85.6458 32.169V39.4613H84.5687V32.169H85.6458Z" fill="#3FA652"/>
<path d="M93.6251 38.6899C93.2175 38.9907 92.7906 39.2188 92.3442 39.374C91.9075 39.5196 91.4272 39.5923 90.9032 39.5923C90.3792 39.5923 89.8843 39.4953 89.4185 39.3012C88.9625 39.1072 88.5646 38.8403 88.225 38.5007C87.8951 38.1611 87.6331 37.7632 87.439 37.3071C87.2449 36.8414 87.1479 36.3416 87.1479 35.8079C87.1479 35.2839 87.2401 34.7939 87.4244 34.3378C87.6185 33.8817 87.8756 33.4839 88.1959 33.1442C88.5161 32.8046 88.8945 32.5378 89.3312 32.3437C89.7776 32.1496 90.2482 32.0526 90.7431 32.0526C91.2283 32.0526 91.6795 32.1496 92.0967 32.3437C92.5237 32.5378 92.8876 32.8046 93.1884 33.1442C93.4989 33.4839 93.7415 33.8817 93.9162 34.3378C94.1006 34.7939 94.1927 35.2839 94.1927 35.8079V36.1427H88.2104C88.2881 36.8608 88.584 37.4575 89.0983 37.933C89.6126 38.4085 90.2288 38.6462 90.9469 38.6462C91.3253 38.6462 91.694 38.588 92.0531 38.4716C92.4121 38.3551 92.7129 38.1902 92.9555 37.9767L93.6251 38.6899ZM90.714 32.9987C90.0832 32.9987 89.535 33.2122 89.0692 33.6391C88.6131 34.0661 88.3366 34.6144 88.2395 35.2839H93.1156C93.0186 34.6435 92.742 34.1049 92.286 33.6682C91.8396 33.2219 91.3156 32.9987 90.714 32.9987Z" fill="#3FA652"/>
<path d="M95.6986 39.4613V32.169H96.7757V33.0278C97.0571 32.6979 97.3919 32.4504 97.78 32.2855C98.1681 32.1108 98.6 32.0235 99.0754 32.0235C99.9003 32.0235 100.575 32.2855 101.099 32.8095C101.623 33.3335 101.885 34.0127 101.885 34.8472V39.4613H100.822V35.0656C100.822 34.4251 100.638 33.9157 100.269 33.5372C99.9003 33.1588 99.4054 32.9696 98.7843 32.9696C98.3477 32.9696 97.9547 33.0666 97.6053 33.2607C97.2657 33.4548 96.9891 33.7313 96.7757 34.0904V39.4613H95.6986Z" fill="#3FA652"/>
<path d="M107.093 38.6171C107.481 38.6171 107.855 38.5395 108.214 38.3842C108.573 38.229 108.908 38.0009 109.218 37.7001L109.888 38.4279C109.5 38.7966 109.063 39.0829 108.578 39.2867C108.093 39.4905 107.588 39.5923 107.064 39.5923C106.55 39.5923 106.064 39.4953 105.608 39.3012C105.152 39.1072 104.759 38.8403 104.429 38.5007C104.099 38.1611 103.837 37.7583 103.643 37.2926C103.449 36.8268 103.352 36.3319 103.352 35.8079C103.352 35.2839 103.449 34.7939 103.643 34.3378C103.837 33.872 104.099 33.4693 104.429 33.1297C104.759 32.7901 105.152 32.5232 105.608 32.3291C106.064 32.1254 106.55 32.0235 107.064 32.0235C107.588 32.0235 108.097 32.1254 108.592 32.3291C109.097 32.5329 109.538 32.8143 109.917 33.1734L109.233 33.9594C108.942 33.6585 108.607 33.4257 108.228 33.2607C107.85 33.0957 107.467 33.0132 107.078 33.0132C106.71 33.0132 106.36 33.086 106.03 33.2316C105.701 33.3771 105.414 33.5761 105.172 33.8284C104.939 34.0807 104.754 34.3766 104.619 34.7162C104.483 35.0559 104.415 35.4198 104.415 35.8079C104.415 36.2058 104.483 36.5794 104.619 36.9287C104.764 37.2683 104.953 37.5643 105.186 37.8166C105.429 38.0592 105.715 38.2532 106.045 38.3988C106.375 38.5443 106.724 38.6171 107.093 38.6171Z" fill="#3FA652"/>
<path d="M117.008 38.6899C116.6 38.9907 116.173 39.2188 115.727 39.374C115.29 39.5196 114.81 39.5923 114.286 39.5923C113.762 39.5923 113.267 39.4953 112.801 39.3012C112.345 39.1072 111.947 38.8403 111.608 38.5007C111.278 38.1611 111.016 37.7632 110.822 37.3071C110.628 36.8414 110.531 36.3416 110.531 35.8079C110.531 35.2839 110.623 34.7939 110.807 34.3378C111.001 33.8817 111.258 33.4839 111.579 33.1442C111.899 32.8046 112.277 32.5378 112.714 32.3437C113.16 32.1496 113.631 32.0526 114.126 32.0526C114.611 32.0526 115.062 32.1496 115.479 32.3437C115.906 32.5378 116.27 32.8046 116.571 33.1442C116.882 33.4839 117.124 33.8817 117.299 34.3378C117.483 34.7939 117.575 35.2839 117.575 35.8079V36.1427H111.593C111.671 36.8608 111.967 37.4575 112.481 37.933C112.995 38.4085 113.611 38.6462 114.33 38.6462C114.708 38.6462 115.077 38.588 115.436 38.4716C115.795 38.3551 116.096 38.1902 116.338 37.9767L117.008 38.6899ZM114.097 32.9987C113.466 32.9987 112.918 33.2122 112.452 33.6391C111.996 34.0661 111.719 34.6144 111.622 35.2839H116.498C116.401 34.6435 116.125 34.1049 115.669 33.6682C115.222 33.2219 114.698 32.9987 114.097 32.9987Z" fill="#3FA652"/>
</g>
<g filter="url(#filter2_d_4_167)">
<path d="M77.7218 51.4696L73.7335 43.304V52.1974H72.6855V42.0085H74.2575L77.7363 49.2426L81.2005 42.0085H82.7725V52.1974H81.71V43.2894L77.7218 51.4696Z" fill="#3FA652"/>
<path d="M85.8391 44.9051V49.3009C85.8391 49.9413 86.0234 50.4507 86.3922 50.8292C86.7609 51.2076 87.2558 51.3969 87.8768 51.3969C88.3135 51.3969 88.7017 51.2998 89.0413 51.1057C89.3906 50.902 89.672 50.6206 89.8855 50.2615V44.9051H90.9626V52.1974H89.8855V51.3532C89.6041 51.6831 89.2693 51.9306 88.8812 52.0955C88.5027 52.2605 88.0758 52.343 87.6003 52.343C86.7658 52.343 86.0865 52.081 85.5625 51.557C85.0385 51.033 84.7765 50.3537 84.7765 49.5192V44.9051H85.8391Z" fill="#3FA652"/>
<path d="M92.0518 51.1931L92.7068 50.4944C93.0367 50.8049 93.4054 51.0475 93.813 51.2222C94.2303 51.3872 94.6524 51.4696 95.0793 51.4696C95.6616 51.4696 96.137 51.3483 96.5058 51.1057C96.8745 50.8632 97.0589 50.5478 97.0589 50.1596C97.0589 49.8491 96.9473 49.6065 96.7241 49.4319C96.5106 49.2475 96.171 49.1213 95.7052 49.0534L94.4389 48.8788C93.7111 48.772 93.1677 48.5585 92.8087 48.2383C92.4593 47.9084 92.2847 47.4669 92.2847 46.9138C92.2847 46.3024 92.5418 45.7978 93.0561 45.4C93.5704 44.9924 94.2254 44.7887 95.0211 44.7887C95.5451 44.7887 96.04 44.8663 96.5058 45.0215C96.9813 45.1768 97.4422 45.4194 97.8885 45.7493L97.3209 46.4771C96.9133 46.2054 96.5155 46.0016 96.1273 45.8658C95.7489 45.7299 95.3607 45.662 94.9629 45.662C94.468 45.662 94.0604 45.7736 93.7402 45.9968C93.4297 46.2199 93.2744 46.5111 93.2744 46.8701C93.2744 47.1806 93.3812 47.4232 93.5947 47.5979C93.8081 47.7628 94.1526 47.8793 94.6281 47.9472L95.8944 48.1219C96.6222 48.2189 97.1656 48.4372 97.5247 48.7769C97.8934 49.1068 98.0778 49.5483 98.0778 50.1014C98.0778 50.4119 98.0001 50.7079 97.8449 50.9893C97.6993 51.261 97.4907 51.4987 97.219 51.7025C96.957 51.8966 96.6465 52.0519 96.2874 52.1683C95.9284 52.275 95.5403 52.3284 95.123 52.3284C94.5214 52.3284 93.9537 52.2314 93.42 52.0373C92.896 51.8335 92.4399 51.5521 92.0518 51.1931Z" fill="#3FA652"/>
<path d="M105.504 51.426C105.096 51.7268 104.669 51.9548 104.223 52.1101C103.786 52.2556 103.306 52.3284 102.782 52.3284C102.258 52.3284 101.763 52.2314 101.297 52.0373C100.841 51.8432 100.443 51.5764 100.103 51.2367C99.7736 50.8971 99.5116 50.4993 99.3175 50.0432C99.1234 49.5774 99.0264 49.0777 99.0264 48.544C99.0264 48.02 99.1186 47.5299 99.3029 47.0739C99.497 46.6178 99.7542 46.2199 100.074 45.8803C100.395 45.5407 100.773 45.2738 101.21 45.0798C101.656 44.8857 102.127 44.7887 102.622 44.7887C103.107 44.7887 103.558 44.8857 103.975 45.0798C104.402 45.2738 104.766 45.5407 105.067 45.8803C105.377 46.2199 105.62 46.6178 105.795 47.0739C105.979 47.5299 106.071 48.02 106.071 48.544V48.8788H100.089C100.167 49.5968 100.463 50.1936 100.977 50.6691C101.491 51.1446 102.107 51.3823 102.825 51.3823C103.204 51.3823 103.573 51.3241 103.932 51.2076C104.291 51.0912 104.591 50.9262 104.834 50.7127L105.504 51.426ZM102.592 45.7348C101.962 45.7348 101.413 45.9482 100.948 46.3752C100.492 46.8022 100.215 47.3504 100.118 48.02H104.994C104.897 47.3795 104.621 46.841 104.164 46.4043C103.718 45.9579 103.194 45.7348 102.592 45.7348Z" fill="#3FA652"/>
<path d="M108.611 44.9051V49.3009C108.611 49.9413 108.795 50.4507 109.164 50.8292C109.532 51.2076 110.027 51.3969 110.648 51.3969C111.085 51.3969 111.473 51.2998 111.813 51.1057C112.162 50.902 112.443 50.6206 112.657 50.2615V44.9051H113.734V52.1974H112.657V51.3532C112.376 51.6831 112.041 51.9306 111.653 52.0955C111.274 52.2605 110.847 52.343 110.372 52.343C109.537 52.343 108.858 52.081 108.334 51.557C107.81 51.033 107.548 50.3537 107.548 49.5192V44.9051H108.611Z" fill="#3FA652"/>
<path d="M115.566 52.1974V44.9051H116.643V45.7056C116.914 45.3951 117.23 45.1622 117.589 45.007C117.948 44.842 118.346 44.7595 118.782 44.7595C119.287 44.7595 119.738 44.8808 120.136 45.1234C120.544 45.3563 120.859 45.6765 121.082 46.0841C121.383 45.6377 121.742 45.3078 122.159 45.0943C122.586 44.8711 123.062 44.7595 123.586 44.7595C124.372 44.7595 125.012 45.0215 125.507 45.5455C126.012 46.0695 126.264 46.7488 126.264 47.5833V52.1974H125.201V47.8016C125.201 47.1612 125.031 46.6518 124.692 46.2733C124.352 45.8949 123.891 45.7056 123.309 45.7056C122.911 45.7056 122.547 45.8075 122.217 46.0113C121.887 46.2151 121.606 46.5111 121.373 46.8992C121.393 47.0059 121.407 47.1175 121.417 47.234C121.436 47.3407 121.446 47.4572 121.446 47.5833V52.1974H120.383V47.8016C120.383 47.1612 120.214 46.6518 119.874 46.2733C119.534 45.8949 119.078 45.7056 118.506 45.7056C118.118 45.7056 117.763 45.7978 117.443 45.9822C117.133 46.1569 116.866 46.4189 116.643 46.7682V52.1974H115.566Z" fill="#3FA652"/>
</g>
<g clip-path="url(#clip0_4_167)">
<path d="M31.9762 45.3836C25.1765 43.5616 19.0821 40.6919 14.816 37.3034C10.4238 33.8149 8.4665 30.1709 9.30463 27.0429C10.1428 23.9149 13.6598 21.7377 19.2079 20.9127C24.5967 20.1112 31.3095 20.6732 38.1091 22.4952C44.9087 24.3171 51.0032 27.1868 55.2692 30.5753C59.6615 34.0639 61.6188 37.7079 60.7806 40.8358C59.9425 43.9638 56.4255 46.141 50.8774 46.966C45.4886 47.7675 38.7758 47.2055 31.9762 45.3836V45.3836ZM37.8021 23.6407C24.3672 20.0409 12.199 21.7318 10.6773 27.4107C9.15568 33.0895 18.8482 40.6381 32.2831 44.238C45.718 47.8379 57.8863 46.1469 59.4079 40.468C60.9296 34.7892 51.237 27.2406 37.8021 23.6407V23.6407Z" fill="#3FA652"/>
<path d="M46.6339 31.4149C48.1147 38.2969 48.3415 45.0294 47.2726 50.3715C46.1721 55.8716 43.8224 59.2758 40.6565 59.957C37.4907 60.6382 33.9487 58.5018 30.6833 53.9412C27.5117 49.5116 24.9492 43.2817 23.4683 36.3997C21.9874 29.5178 21.7607 22.7853 22.8296 17.4432C23.9301 11.9431 26.2798 8.53889 29.4457 7.85766C32.6115 7.17643 36.1535 9.31283 39.4188 13.8735C42.5905 18.3031 45.153 24.533 46.6339 31.4149ZM24.6278 36.1502C27.5537 49.7478 34.6099 59.8045 40.3576 58.5677C46.1052 57.3309 48.4004 45.262 45.4744 31.6644C42.5485 18.0668 35.4923 8.01019 29.7446 9.24697C23.997 10.4838 21.7018 22.5527 24.6278 36.1502Z" fill="#3FA652"/>
<path d="M43.0009 42.6922C37.7814 47.4156 32.0643 50.9783 26.9034 52.7236C21.59 54.5206 17.467 54.1878 15.2941 51.7867C13.1212 49.3856 13.2004 45.25 15.5174 40.1417C17.7677 35.1802 21.8817 29.8461 27.1012 25.1226C32.3207 20.3992 38.0378 16.8365 43.1987 15.0912C48.5122 13.2942 52.6352 13.627 54.808 16.0281C56.9809 18.4292 56.9017 22.5648 54.5848 27.6731C52.3344 32.6346 48.2205 37.9687 43.0009 42.6922ZM27.897 26.002C17.5841 35.3347 12.4029 46.4739 16.3478 50.8331C20.2927 55.1923 31.8923 51.1456 42.2052 41.8128C52.518 32.4801 57.6992 21.3409 53.7543 16.9817C49.8094 12.6225 38.2099 16.6692 27.897 26.002Z" fill="#3FA652"/>
<g filter="url(#filter3_d_4_167)">
<path d="M38.8369 34.0943C38.7323 36.192 36.9468 37.8078 34.8491 37.7031C32.7513 37.5985 31.1355 35.813 31.2402 33.7153C31.3448 31.6175 33.1303 30.0017 35.2281 30.1064C37.3259 30.211 38.9416 31.9965 38.8369 34.0943Z" fill="#B1C0B4"/>
</g>
<g filter="url(#filter4_d_4_167)">
<path d="M54.7366 15.3691C54.662 16.8654 53.3884 18.0179 51.8921 17.9432C50.3958 17.8686 49.2433 16.5951 49.318 15.0987C49.3926 13.6024 50.6661 12.4499 52.1625 12.5246C53.6588 12.5992 54.8113 13.8728 54.7366 15.3691Z" fill="#B1C0B4"/>
</g>
<g filter="url(#filter5_d_4_167)">
<path d="M17.2317 23.0841C17.1571 24.5804 15.8836 25.7329 14.3872 25.6583C12.8909 25.5836 11.7384 24.3101 11.8131 22.8138C11.8877 21.3174 13.1613 20.1649 14.6576 20.2396C16.1539 20.3143 17.3064 21.5878 17.2317 23.0841Z" fill="#B1C0B4"/>
</g>
<g filter="url(#filter6_d_4_167)">
<path d="M48.8435 52.3546C48.7689 53.8509 47.4954 55.0034 45.999 54.9287C44.5027 54.8541 43.3502 53.5805 43.4249 52.0842C43.4995 50.5879 44.7731 49.4354 46.2694 49.51C47.7657 49.5847 48.9182 50.8582 48.8435 52.3546Z" fill="#B1C0B4"/>
</g>
</g>
<defs>
<filter id="filter0_d_4_167" x="63.1079" y="16.3763" width="74.811" height="13.4202" filterUnits="userSpaceOnUse" color-interpolation-filters="sRGB">
<feFlood flood-opacity="0" result="BackgroundImageFix"/>
<feColorMatrix in="SourceAlpha" type="matrix" values="0 0 0 0 0 0 0 0 0 0 0 0 0 0 0 0 0 0 127 0" result="hardAlpha"/>
<feOffset/>
<feComposite in2="hardAlpha" operator="out"/>
<feColorMatrix type="matrix" values="0 0 0 0 0.247059 0 0 0 0 0.65098 0 0 0 0 0.321569 0 0 0 1 0"/>
<feBlend mode="normal" in2="BackgroundImageFix" result="effect1_dropShadow_4_167"/>
<feBlend mode="normal" in="SourceGraphic" in2="effect1_dropShadow_4_167" result="shape"/>
</filter>
<filter id="filter1_d_4_167" x="67.4795" y="29.1415" width="50.0957" height="10.4654" filterUnits="userSpaceOnUse" color-interpolation-filters="sRGB">
<feFlood flood-opacity="0" result="BackgroundImageFix"/>
<feColorMatrix in="SourceAlpha" type="matrix" values="0 0 0 0 0 0 0 0 0 0 0 0 0 0 0 0 0 0 127 0" result="hardAlpha"/>
<feOffset/>
<feComposite in2="hardAlpha" operator="out"/>
<feColorMatrix type="matrix" values="0 0 0 0 0.247059 0 0 0 0 0.65098 0 0 0 0 0.321569 0 0 0 1 0"/>
<feBlend mode="normal" in2="BackgroundImageFix" result="effect1_dropShadow_4_167"/>
<feBlend mode="normal" in="SourceGraphic" in2="effect1_dropShadow_4_167" result="shape"/>
</filter>
<filter id="filter2_d_4_167" x="72.6855" y="42.0085" width="53.5781" height="10.3344" filterUnits="userSpaceOnUse" color-interpolation-filters="sRGB">
<feFlood flood-opacity="0" result="BackgroundImageFix"/>
<feColorMatrix in="SourceAlpha" type="matrix" values="0 0 0 0 0 0 0 0 0 0 0 0 0 0 0 0 0 0 127 0" result="hardAlpha"/>
<feOffset/>
<feComposite in2="hardAlpha" operator="out"/>
<feColorMatrix type="matrix" values="0 0 0 0 0.247059 0 0 0 0 0.65098 0 0 0 0 0.321569 0 0 0 1 0"/>
<feBlend mode="normal" in2="BackgroundImageFix" result="effect1_dropShadow_4_167"/>
<feBlend mode="normal" in="SourceGraphic" in2="effect1_dropShadow_4_167" result="shape"/>
</filter>
<filter id="filter3_d_4_167" x="25.2354" y="24.1016" width="19.6064" height="19.6064" filterUnits="userSpaceOnUse" color-interpolation-filters="sRGB">
<feFlood flood-opacity="0" result="BackgroundImageFix"/>
<feColorMatrix in="SourceAlpha" type="matrix" values="0 0 0 0 0 0 0 0 0 0 0 0 0 0 0 0 0 0 127 0" result="hardAlpha"/>
<feOffset/>
<feGaussianBlur stdDeviation="3"/>
<feComposite in2="hardAlpha" operator="out"/>
<feColorMatrix type="matrix" values="0 0 0 0 0 0 0 0 0 1 0 0 0 0 0.184466 0 0 0 1 0"/>
<feBlend mode="normal" in2="BackgroundImageFix" result="effect1_dropShadow_4_167"/>
<feBlend mode="normal" in="SourceGraphic" in2="effect1_dropShadow_4_167" result="shape"/>
</filter>
<filter id="filter4_d_4_167" x="44.3145" y="7.52112" width="15.4258" height="15.4255" filterUnits="userSpaceOnUse" color-interpolation-filters="sRGB">
<feFlood flood-opacity="0" result="BackgroundImageFix"/>
<feColorMatrix in="SourceAlpha" type="matrix" values="0 0 0 0 0 0 0 0 0 0 0 0 0 0 0 0 0 0 127 0" result="hardAlpha"/>
<feOffset/>
<feGaussianBlur stdDeviation="2.5"/>
<feComposite in2="hardAlpha" operator="out"/>
<feColorMatrix type="matrix" values="0 0 0 0 0 0 0 0 0 1 0 0 0 0 0.184466 0 0 0 1 0"/>
<feBlend mode="normal" in2="BackgroundImageFix" result="effect1_dropShadow_4_167"/>
<feBlend mode="normal" in="SourceGraphic" in2="effect1_dropShadow_4_167" result="shape"/>
</filter>
<filter id="filter5_d_4_167" x="6.80957" y="15.2361" width="15.4258" height="15.4255" filterUnits="userSpaceOnUse" color-interpolation-filters="sRGB">
<feFlood flood-opacity="0" result="BackgroundImageFix"/>
<feColorMatrix in="SourceAlpha" type="matrix" values="0 0 0 0 0 0 0 0 0 0 0 0 0 0 0 0 0 0 127 0" result="hardAlpha"/>
<feOffset/>
<feGaussianBlur stdDeviation="2.5"/>
<feComposite in2="hardAlpha" operator="out"/>
<feColorMatrix type="matrix" values="0 0 0 0 0 0 0 0 0 1 0 0 0 0 0.184466 0 0 0 1 0"/>
<feBlend mode="normal" in2="BackgroundImageFix" result="effect1_dropShadow_4_167"/>
<feBlend mode="normal" in="SourceGraphic" in2="effect1_dropShadow_4_167" result="shape"/>
</filter>
<filter id="filter6_d_4_167" x="38.4214" y="44.5066" width="15.4258" height="15.4255" filterUnits="userSpaceOnUse" color-interpolation-filters="sRGB">
<feFlood flood-opacity="0" result="BackgroundImageFix"/>
<feColorMatrix in="SourceAlpha" type="matrix" values="0 0 0 0 0 0 0 0 0 0 0 0 0 0 0 0 0 0 127 0" result="hardAlpha"/>
<feOffset/>
<feGaussianBlur stdDeviation="2.5"/>
<feComposite in2="hardAlpha" operator="out"/>
<feColorMatrix type="matrix" values="0 0 0 0 0 0 0 0 0 1 0 0 0 0 0.184466 0 0 0 1 0"/>
<feBlend mode="normal" in2="BackgroundImageFix" result="effect1_dropShadow_4_167"/>
<feBlend mode="normal" in="SourceGraphic" in2="effect1_dropShadow_4_167" result="shape"/>
</filter>
<clipPath id="clip0_4_167">
<rect width="59.6839" height="54.4065" fill="white" transform="translate(14.0815) rotate(15)"/>
</clipPath>
</defs>
</svg>
