<svg width="142" height="68" viewBox="0 0 142 68" fill="none" xmlns="http://www.w3.org/2000/svg">
<g filter="url(#filter0_d_2_2)">
<path d="M68.4207 25.8519C69.0514 25.8519 69.6531 25.7306 70.2256 25.488C70.7981 25.2357 71.2784 24.8912 71.6666 24.4546L72.3943 25.2115C71.8898 25.7355 71.2881 26.1479 70.5895 26.4487C69.8908 26.7398 69.1582 26.8854 68.3916 26.8854C67.6541 26.8854 66.9603 26.7495 66.3101 26.4778C65.6697 26.2061 65.1117 25.8374 64.6363 25.3716C64.1608 24.8961 63.7872 24.3381 63.5155 23.6977C63.2438 23.0475 63.1079 22.3586 63.1079 21.6308C63.1079 20.903 63.2438 20.2189 63.5155 19.5785C63.7872 18.9283 64.1608 18.3704 64.6363 17.9046C65.1117 17.4291 65.6697 17.0555 66.3101 16.7838C66.9603 16.5121 67.6541 16.3763 68.3916 16.3763C69.1776 16.3763 69.9199 16.5267 70.6186 16.8275C71.3269 17.1186 71.9286 17.5262 72.4235 18.0502L71.6811 18.8361C71.2833 18.3898 70.7884 18.0404 70.1965 17.7882C69.6142 17.5359 69.0126 17.4097 68.3916 17.4097C67.8094 17.4097 67.2611 17.5213 66.7468 17.7445C66.2422 17.958 65.8055 18.2539 65.4368 18.6324C65.0681 19.0011 64.777 19.4475 64.5635 19.9715C64.35 20.4858 64.2433 21.0389 64.2433 21.6308C64.2433 22.2227 64.35 22.7807 64.5635 23.3047C64.777 23.819 65.0681 24.2654 65.4368 24.6438C65.8153 25.0125 66.2568 25.3085 66.7614 25.5317C67.2757 25.7452 67.8288 25.8519 68.4207 25.8519Z" fill="#3FA652"/>
<path d="M73.2698 23.0718C73.2698 22.5478 73.3669 22.0529 73.561 21.5871C73.755 21.1214 74.017 20.7187 74.3469 20.379C74.6866 20.0394 75.0844 19.7726 75.5405 19.5785C75.9966 19.3844 76.4818 19.2874 76.9961 19.2874C77.5103 19.2874 77.9907 19.3844 78.4371 19.5785C78.8931 19.7726 79.2861 20.0394 79.616 20.379C79.9557 20.7187 80.2225 21.1214 80.4166 21.5871C80.6107 22.0529 80.7077 22.5478 80.7077 23.0718C80.7077 23.6055 80.6107 24.1053 80.4166 24.571C80.2225 25.0368 79.9557 25.4395 79.616 25.7791C79.2861 26.1188 78.8931 26.3856 78.4371 26.5797C77.9907 26.7738 77.5103 26.8708 76.9961 26.8708C76.4818 26.8708 75.9966 26.7738 75.5405 26.5797C75.0844 26.3856 74.6866 26.1188 74.3469 25.7791C74.017 25.4395 73.755 25.0368 73.561 24.571C73.3669 24.1053 73.2698 23.6055 73.2698 23.0718ZM76.9961 25.9101C77.3648 25.9101 77.7093 25.8374 78.0295 25.6918C78.3594 25.5462 78.6408 25.3473 78.8737 25.095C79.1163 24.833 79.3055 24.5322 79.4414 24.1926C79.5772 23.8433 79.6452 23.4697 79.6452 23.0718C79.6452 22.674 79.5772 22.3052 79.4414 21.9656C79.3055 21.6163 79.1163 21.3154 78.8737 21.0631C78.6408 20.8108 78.3594 20.6119 78.0295 20.4664C77.7093 20.3208 77.3648 20.248 76.9961 20.248C76.6273 20.248 76.278 20.3208 75.9481 20.4664C75.6278 20.6119 75.3464 20.8108 75.1038 21.0631C74.8709 21.3154 74.6817 21.6163 74.5362 21.9656C74.4003 22.3052 74.3324 22.674 74.3324 23.0718C74.3324 23.4697 74.4003 23.8433 74.5362 24.1926C74.672 24.5322 74.8564 24.833 75.0893 25.095C75.3319 25.3473 75.6181 25.5462 75.9481 25.6918C76.278 25.8374 76.6273 25.9101 76.9961 25.9101Z" fill="#3FA652"/>
<path d="M82.2043 26.7252V19.4329H83.2814V20.2335C83.5531 19.923 83.8685 19.6901 84.2275 19.5348C84.5866 19.3699 84.9844 19.2874 85.4211 19.2874C85.9257 19.2874 86.3769 19.4087 86.7748 19.6513C87.1823 19.8841 87.4977 20.2044 87.7209 20.6119C88.0217 20.1656 88.3807 19.8356 88.798 19.6221C89.2249 19.399 89.7004 19.2874 90.2244 19.2874C91.0104 19.2874 91.6509 19.5494 92.1457 20.0734C92.6503 20.5974 92.9026 21.2766 92.9026 22.1111V26.7252H91.8401V22.3295C91.8401 21.689 91.6703 21.1796 91.3306 20.8011C90.991 20.4227 90.5301 20.2335 89.9479 20.2335C89.55 20.2335 89.1861 20.3354 88.8562 20.5391C88.5263 20.7429 88.2449 21.0389 88.012 21.427C88.0314 21.5338 88.0459 21.6454 88.0556 21.7618C88.075 21.8686 88.0847 21.985 88.0847 22.1111V26.7252H87.0222V22.3295C87.0222 21.689 86.8524 21.1796 86.5128 20.8011C86.1731 20.4227 85.7171 20.2335 85.1445 20.2335C84.7564 20.2335 84.4022 20.3257 84.082 20.51C83.7715 20.6847 83.5046 20.9467 83.2814 21.296V26.7252H82.2043Z" fill="#3FA652"/>
<path d="M94.713 26.7252V19.4329H95.7901V20.2335C96.0618 19.923 96.3772 19.6901 96.7362 19.5348C97.0952 19.3699 97.4931 19.2874 97.9297 19.2874C98.4343 19.2874 98.8856 19.4087 99.2834 19.6513C99.691 19.8841 100.006 20.2044 100.23 20.6119C100.53 20.1656 100.889 19.8356 101.307 19.6221C101.734 19.399 102.209 19.2874 102.733 19.2874C103.519 19.2874 104.16 19.5494 104.654 20.0734C105.159 20.5974 105.411 21.2766 105.411 22.1111V26.7252H104.349V22.3295C104.349 21.689 104.179 21.1796 103.839 20.8011C103.5 20.4227 103.039 20.2335 102.457 20.2335C102.059 20.2335 101.695 20.3354 101.365 20.5391C101.035 20.7429 100.754 21.0389 100.521 21.427C100.54 21.5338 100.555 21.6454 100.564 21.7618C100.584 21.8686 100.593 21.985 100.593 22.1111V26.7252H99.5308V22.3295C99.5308 21.689 99.361 21.1796 99.0214 20.8011C98.6818 20.4227 98.2257 20.2335 97.6532 20.2335C97.265 20.2335 96.9109 20.3257 96.5906 20.51C96.2801 20.6847 96.0133 20.9467 95.7901 21.296V26.7252H94.713Z" fill="#3FA652"/>
<path d="M108.184 19.4329V23.8287C108.184 24.4691 108.368 24.9786 108.737 25.357C109.106 25.7355 109.601 25.9247 110.222 25.9247C110.658 25.9247 111.047 25.8277 111.386 25.6336C111.736 25.4298 112.017 25.1484 112.23 24.7894V19.4329H113.308V26.7252H112.23V25.881C111.949 26.2109 111.614 26.4584 111.226 26.6234C110.848 26.7883 110.421 26.8708 109.945 26.8708C109.111 26.8708 108.431 26.6088 107.907 26.0848C107.383 25.5608 107.121 24.8815 107.121 24.047V19.4329H108.184Z" fill="#3FA652"/>
<path d="M115.139 26.7252V19.4329H116.216V20.2917C116.498 19.9618 116.832 19.7143 117.22 19.5494C117.609 19.3747 118.04 19.2874 118.516 19.2874C119.341 19.2874 120.015 19.5494 120.539 20.0734C121.063 20.5974 121.325 21.2766 121.325 22.1111V26.7252H120.263V22.3295C120.263 21.689 120.078 21.1796 119.709 20.8011C119.341 20.4227 118.846 20.2335 118.225 20.2335C117.788 20.2335 117.395 20.3305 117.046 20.5246C116.706 20.7187 116.43 20.9952 116.216 21.3543V26.7252H115.139Z" fill="#3FA652"/>
<path d="M123.666 18.0356C123.472 18.0356 123.302 17.9628 123.157 17.8173C123.011 17.6717 122.938 17.5019 122.938 17.3078C122.938 17.104 123.011 16.9342 123.157 16.7984C123.302 16.6528 123.472 16.58 123.666 16.58C123.87 16.58 124.04 16.6528 124.176 16.7984C124.321 16.9342 124.394 17.104 124.394 17.3078C124.394 17.5019 124.321 17.6717 124.176 17.8173C124.04 17.9628 123.87 18.0356 123.666 18.0356ZM124.205 19.4329V26.7252H123.128V19.4329H124.205Z" fill="#3FA652"/>
<path d="M126.944 25.095V20.3499H125.372V19.4329H126.944V17.5844L128.006 17.3078V19.4329H130.204V20.3499H128.006V24.8185C128.006 25.2066 128.094 25.488 128.268 25.6627C128.443 25.8277 128.729 25.9101 129.127 25.9101C129.331 25.9101 129.511 25.8956 129.666 25.8665C129.831 25.8374 130.005 25.7888 130.19 25.7209V26.667C130.005 26.7349 129.797 26.7835 129.564 26.8126C129.341 26.8417 129.122 26.8562 128.909 26.8562C128.278 26.8562 127.793 26.7058 127.453 26.405C127.114 26.1042 126.944 25.6675 126.944 25.095Z" fill="#3FA652"/>
<path d="M133.203 27.6714L133.625 26.7107L130.656 19.4329H131.849L134.207 25.4152L136.754 19.4329H137.919L134.294 27.8169C133.984 28.5156 133.639 29.0202 133.261 29.3307C132.883 29.6412 132.402 29.7965 131.82 29.7965C131.684 29.7965 131.553 29.7868 131.427 29.7673C131.311 29.7576 131.214 29.7431 131.136 29.7237V28.7485C131.233 28.7679 131.325 28.7824 131.412 28.7921C131.509 28.8018 131.621 28.8067 131.747 28.8067C132.077 28.8067 132.359 28.7145 132.591 28.5301C132.824 28.3458 133.028 28.0595 133.203 27.6714Z" fill="#3FA652"/>
</g>
<g filter="url(#filter1_d_2_2)">
<path d="M67.4794 37.7147L68.2217 36.9432C68.7457 37.4963 69.3037 37.9184 69.8956 38.2095C70.4972 38.491 71.128 38.6317 71.7878 38.6317C72.5835 38.6317 73.2385 38.4424 73.7528 38.064C74.2671 37.6855 74.5243 37.2052 74.5243 36.623C74.5243 36.099 74.3399 35.6963 73.9712 35.4149C73.6121 35.1335 73.0153 34.9249 72.1808 34.789L70.7107 34.5561C69.7306 34.4009 69.0077 34.1146 68.5419 33.6973C68.0762 33.2704 67.8433 32.6979 67.8433 31.9798C67.8433 31.1356 68.1732 30.4515 68.8331 29.9275C69.4929 29.4035 70.3565 29.1415 71.4239 29.1415C72.1323 29.1415 72.8358 29.2579 73.5345 29.4908C74.2332 29.7237 74.8687 30.0585 75.4413 30.4951L74.8008 31.3685C74.2477 30.9512 73.6849 30.6358 73.1124 30.4223C72.5399 30.2089 71.9625 30.1021 71.3803 30.1021C70.6525 30.1021 70.0606 30.2719 69.6045 30.6116C69.1581 30.9415 68.9349 31.3685 68.9349 31.8925C68.9349 32.3679 69.0951 32.7318 69.4153 32.9841C69.7355 33.2364 70.2643 33.4208 71.0018 33.5372L72.4574 33.7701C73.5636 33.9545 74.369 34.2699 74.8736 34.7162C75.3879 35.1626 75.645 35.7788 75.645 36.5648C75.645 37.0111 75.548 37.4235 75.3539 37.802C75.1696 38.1707 74.9027 38.491 74.5534 38.7627C74.2137 39.0247 73.8013 39.2333 73.3162 39.3885C72.8407 39.5341 72.3167 39.6069 71.7442 39.6069C70.9388 39.6069 70.1625 39.4468 69.4153 39.1265C68.6778 38.7966 68.0325 38.326 67.4794 37.7147Z" fill="#3FA652"/>
<path d="M80.512 38.6171C80.9002 38.6171 81.2738 38.5395 81.6328 38.3842C81.9919 38.229 82.3266 38.0009 82.6372 37.7001L83.3067 38.4279C82.9186 38.7966 82.4819 39.0829 81.9967 39.2867C81.5115 39.4904 81.0069 39.5923 80.4829 39.5923C79.9686 39.5923 79.4835 39.4953 79.0274 39.3012C78.5713 39.1071 78.1783 38.8403 77.8484 38.5007C77.5185 38.161 77.2565 37.7583 77.0624 37.2925C76.8683 36.8268 76.7713 36.3319 76.7713 35.8079C76.7713 35.2839 76.8683 34.7939 77.0624 34.3378C77.2565 33.872 77.5185 33.4693 77.8484 33.1297C78.1783 32.79 78.5713 32.5232 79.0274 32.3291C79.4835 32.1253 79.9686 32.0235 80.4829 32.0235C81.0069 32.0235 81.5164 32.1253 82.0113 32.3291C82.5159 32.5329 82.9574 32.8143 83.3358 33.1733L82.6517 33.9593C82.3606 33.6585 82.0258 33.4256 81.6474 33.2607C81.2689 33.0957 80.8856 33.0132 80.4975 33.0132C80.1287 33.0132 79.7794 33.086 79.4495 33.2316C79.1196 33.3771 78.8333 33.576 78.5907 33.8283C78.3578 34.0806 78.1735 34.3766 78.0376 34.7162C77.9018 35.0559 77.8338 35.4197 77.8338 35.8079C77.8338 36.2057 77.9018 36.5793 78.0376 36.9287C78.1832 37.2683 78.3724 37.5643 78.6053 37.8165C78.8479 38.0591 79.1341 38.2532 79.464 38.3988C79.794 38.5443 80.1433 38.6171 80.512 38.6171Z" fill="#3FA652"/>
<path d="M85.1072 30.7717C84.9131 30.7717 84.7433 30.6989 84.5977 30.5533C84.4522 30.4078 84.3794 30.238 84.3794 30.0439C84.3794 29.8401 84.4522 29.6703 84.5977 29.5345C84.7433 29.3889 84.9131 29.3161 85.1072 29.3161C85.3109 29.3161 85.4807 29.3889 85.6166 29.5345C85.7622 29.6703 85.8349 29.8401 85.8349 30.0439C85.8349 30.238 85.7622 30.4078 85.6166 30.5533C85.4807 30.6989 85.3109 30.7717 85.1072 30.7717ZM85.6457 32.169V39.4613H84.5686V32.169H85.6457Z" fill="#3FA652"/>
<path d="M93.625 38.6899C93.2174 38.9907 92.7905 39.2187 92.3441 39.374C91.9074 39.5195 91.4271 39.5923 90.9031 39.5923C90.3791 39.5923 89.8842 39.4953 89.4184 39.3012C88.9624 39.1071 88.5645 38.8403 88.2249 38.5007C87.895 38.161 87.633 37.7632 87.4389 37.3071C87.2448 36.8413 87.1478 36.3416 87.1478 35.8079C87.1478 35.2839 87.24 34.7939 87.4243 34.3378C87.6184 33.8817 87.8755 33.4839 88.1958 33.1442C88.516 32.8046 88.8944 32.5377 89.3311 32.3437C89.7775 32.1496 90.2481 32.0526 90.743 32.0526C91.2282 32.0526 91.6794 32.1496 92.0966 32.3437C92.5236 32.5377 92.8875 32.8046 93.1883 33.1442C93.4988 33.4839 93.7414 33.8817 93.9161 34.3378C94.1005 34.7939 94.1926 35.2839 94.1926 35.8079V36.1427H88.2103C88.288 36.8607 88.5839 37.4575 89.0982 37.933C89.6125 38.4085 90.2287 38.6462 90.9468 38.6462C91.3252 38.6462 91.6939 38.588 92.053 38.4715C92.412 38.3551 92.7128 38.1901 92.9554 37.9767L93.625 38.6899ZM90.7139 32.9987C90.0831 32.9987 89.5349 33.2122 89.0691 33.6391C88.613 34.0661 88.3365 34.6143 88.2394 35.2839H93.1155C93.0185 34.6434 92.7419 34.1049 92.2859 33.6682C91.8395 33.2219 91.3155 32.9987 90.7139 32.9987Z" fill="#3FA652"/>
<path d="M95.6985 39.4613V32.169H96.7756V33.0278C97.057 32.6979 97.3918 32.4504 97.7799 32.2854C98.168 32.1108 98.5999 32.0235 99.0753 32.0235C99.9002 32.0235 100.575 32.2854 101.099 32.8094C101.623 33.3334 101.885 34.0127 101.885 34.8472V39.4613H100.822V35.0656C100.822 34.4251 100.638 33.9157 100.269 33.5372C99.9002 33.1588 99.4053 32.9696 98.7842 32.9696C98.3476 32.9696 97.9546 33.0666 97.6052 33.2607C97.2656 33.4547 96.989 33.7313 96.7756 34.0903V39.4613H95.6985Z" fill="#3FA652"/>
<path d="M107.093 38.6171C107.481 38.6171 107.855 38.5395 108.214 38.3842C108.573 38.229 108.908 38.0009 109.218 37.7001L109.888 38.4279C109.499 38.7966 109.063 39.0829 108.578 39.2867C108.092 39.4904 107.588 39.5923 107.064 39.5923C106.55 39.5923 106.064 39.4953 105.608 39.3012C105.152 39.1071 104.759 38.8403 104.429 38.5007C104.099 38.161 103.837 37.7583 103.643 37.2925C103.449 36.8268 103.352 36.3319 103.352 35.8079C103.352 35.2839 103.449 34.7939 103.643 34.3378C103.837 33.872 104.099 33.4693 104.429 33.1297C104.759 32.79 105.152 32.5232 105.608 32.3291C106.064 32.1253 106.55 32.0235 107.064 32.0235C107.588 32.0235 108.097 32.1253 108.592 32.3291C109.097 32.5329 109.538 32.8143 109.917 33.1733L109.233 33.9593C108.941 33.6585 108.607 33.4256 108.228 33.2607C107.85 33.0957 107.467 33.0132 107.078 33.0132C106.71 33.0132 106.36 33.086 106.03 33.2316C105.7 33.3771 105.414 33.576 105.172 33.8283C104.939 34.0806 104.754 34.3766 104.618 34.7162C104.483 35.0559 104.415 35.4197 104.415 35.8079C104.415 36.2057 104.483 36.5793 104.618 36.9287C104.764 37.2683 104.953 37.5643 105.186 37.8165C105.429 38.0591 105.715 38.2532 106.045 38.3988C106.375 38.5443 106.724 38.6171 107.093 38.6171Z" fill="#3FA652"/>
<path d="M117.008 38.6899C116.6 38.9907 116.173 39.2187 115.727 39.374C115.29 39.5195 114.81 39.5923 114.286 39.5923C113.762 39.5923 113.267 39.4953 112.801 39.3012C112.345 39.1071 111.947 38.8403 111.608 38.5007C111.278 38.161 111.016 37.7632 110.822 37.3071C110.627 36.8413 110.53 36.3416 110.53 35.8079C110.53 35.2839 110.623 34.7939 110.807 34.3378C111.001 33.8817 111.258 33.4839 111.578 33.1442C111.899 32.8046 112.277 32.5377 112.714 32.3437C113.16 32.1496 113.631 32.0526 114.126 32.0526C114.611 32.0526 115.062 32.1496 115.479 32.3437C115.906 32.5377 116.27 32.8046 116.571 33.1442C116.881 33.4839 117.124 33.8817 117.299 34.3378C117.483 34.7939 117.575 35.2839 117.575 35.8079V36.1427H111.593C111.671 36.8607 111.967 37.4575 112.481 37.933C112.995 38.4085 113.611 38.6462 114.329 38.6462C114.708 38.6462 115.077 38.588 115.436 38.4715C115.795 38.3551 116.095 38.1901 116.338 37.9767L117.008 38.6899ZM114.097 32.9987C113.466 32.9987 112.918 33.2122 112.452 33.6391C111.996 34.0661 111.719 34.6143 111.622 35.2839H116.498C116.401 34.6434 116.125 34.1049 115.669 33.6682C115.222 33.2219 114.698 32.9987 114.097 32.9987Z" fill="#3FA652"/>
</g>
<g filter="url(#filter2_d_2_2)">
<path d="M77.7217 51.4696L73.7335 43.304V52.1974H72.6855V42.0085H74.2575L77.7362 49.2426L81.2004 42.0085H82.7724V52.1974H81.7099V43.2894L77.7217 51.4696Z" fill="#3FA652"/>
<path d="M85.839 44.9051V49.3009C85.839 49.9413 86.0234 50.4507 86.3921 50.8292C86.7608 51.2076 87.2557 51.3969 87.8768 51.3969C88.3134 51.3969 88.7016 51.2998 89.0412 51.1057C89.3905 50.902 89.6719 50.6206 89.8854 50.2615V44.9051H90.9625V52.1974H89.8854V51.3532C89.604 51.6831 89.2692 51.9306 88.8811 52.0955C88.5026 52.2605 88.0757 52.343 87.6002 52.343C86.7657 52.343 86.0864 52.081 85.5624 51.557C85.0384 51.033 84.7764 50.3537 84.7764 49.5192V44.9051H85.839Z" fill="#3FA652"/>
<path d="M92.0517 51.1931L92.7067 50.4944C93.0366 50.8049 93.4054 51.0475 93.8129 51.2222C94.2302 51.3872 94.6523 51.4696 95.0792 51.4696C95.6615 51.4696 96.1369 51.3483 96.5057 51.1057C96.8744 50.8632 97.0588 50.5478 97.0588 50.1596C97.0588 49.8491 96.9472 49.6065 96.724 49.4319C96.5105 49.2475 96.1709 49.1213 95.7051 49.0534L94.4388 48.8788C93.711 48.772 93.1676 48.5585 92.8086 48.2383C92.4592 47.9084 92.2846 47.4669 92.2846 46.9138C92.2846 46.3024 92.5417 45.7978 93.056 45.4C93.5703 44.9924 94.2253 44.7887 95.021 44.7887C95.545 44.7887 96.0399 44.8663 96.5057 45.0215C96.9812 45.1768 97.4421 45.4194 97.8885 45.7493L97.3208 46.4771C96.9132 46.2054 96.5154 46.0016 96.1272 45.8658C95.7488 45.7299 95.3606 45.662 94.9628 45.662C94.4679 45.662 94.0604 45.7736 93.7401 45.9968C93.4296 46.2199 93.2744 46.5111 93.2744 46.8701C93.2744 47.1806 93.3811 47.4232 93.5946 47.5979C93.8081 47.7628 94.1525 47.8793 94.628 47.9472L95.8943 48.1219C96.6221 48.2189 97.1655 48.4372 97.5246 48.7769C97.8933 49.1068 98.0777 49.5483 98.0777 50.1014C98.0777 50.4119 98 50.7079 97.8448 50.9893C97.6992 51.261 97.4906 51.4987 97.2189 51.7025C96.9569 51.8966 96.6464 52.0519 96.2873 52.1683C95.9283 52.275 95.5402 52.3284 95.1229 52.3284C94.5213 52.3284 93.9536 52.2314 93.4199 52.0373C92.8959 51.8335 92.4398 51.5521 92.0517 51.1931Z" fill="#3FA652"/>
<path d="M105.503 51.426C105.096 51.7268 104.669 51.9548 104.223 52.1101C103.786 52.2556 103.306 52.3284 102.782 52.3284C102.258 52.3284 101.763 52.2314 101.297 52.0373C100.841 51.8432 100.443 51.5764 100.103 51.2367C99.7735 50.8971 99.5115 50.4993 99.3174 50.0432C99.1233 49.5774 99.0263 49.0777 99.0263 48.544C99.0263 48.02 99.1185 47.5299 99.3028 47.0739C99.4969 46.6178 99.7541 46.2199 100.074 45.8803C100.395 45.5407 100.773 45.2738 101.21 45.0798C101.656 44.8857 102.127 44.7887 102.622 44.7887C103.107 44.7887 103.558 44.8857 103.975 45.0798C104.402 45.2738 104.766 45.5407 105.067 45.8803C105.377 46.2199 105.62 46.6178 105.795 47.0739C105.979 47.5299 106.071 48.02 106.071 48.544V48.8788H100.089C100.166 49.5968 100.462 50.1936 100.977 50.6691C101.491 51.1446 102.107 51.3823 102.825 51.3823C103.204 51.3823 103.572 51.3241 103.931 51.2076C104.291 51.0912 104.591 50.9262 104.834 50.7127L105.503 51.426ZM102.592 45.7348C101.962 45.7348 101.413 45.9482 100.948 46.3752C100.492 46.8022 100.215 47.3504 100.118 48.02H104.994C104.897 47.3795 104.62 46.841 104.164 46.4043C103.718 45.9579 103.194 45.7348 102.592 45.7348Z" fill="#3FA652"/>
<path d="M108.61 44.9051V49.3009C108.61 49.9413 108.795 50.4507 109.164 50.8292C109.532 51.2076 110.027 51.3969 110.648 51.3969C111.085 51.3969 111.473 51.2998 111.813 51.1057C112.162 50.902 112.443 50.6206 112.657 50.2615V44.9051H113.734V52.1974H112.657V51.3532C112.375 51.6831 112.041 51.9306 111.653 52.0955C111.274 52.2605 110.847 52.343 110.372 52.343C109.537 52.343 108.858 52.081 108.334 51.557C107.81 51.033 107.548 50.3537 107.548 49.5192V44.9051H108.61Z" fill="#3FA652"/>
<path d="M115.565 52.1974V44.9051H116.643V45.7056C116.914 45.3951 117.23 45.1622 117.589 45.007C117.948 44.842 118.346 44.7595 118.782 44.7595C119.287 44.7595 119.738 44.8808 120.136 45.1234C120.543 45.3563 120.859 45.6765 121.082 46.0841C121.383 45.6377 121.742 45.3078 122.159 45.0943C122.586 44.8711 123.062 44.7595 123.586 44.7595C124.372 44.7595 125.012 45.0215 125.507 45.5455C126.011 46.0695 126.264 46.7488 126.264 47.5833V52.1974H125.201V47.8016C125.201 47.1612 125.031 46.6518 124.692 46.2733C124.352 45.8949 123.891 45.7056 123.309 45.7056C122.911 45.7056 122.547 45.8075 122.217 46.0113C121.887 46.2151 121.606 46.5111 121.373 46.8992C121.393 47.0059 121.407 47.1175 121.417 47.234C121.436 47.3407 121.446 47.4572 121.446 47.5833V52.1974H120.383V47.8016C120.383 47.1612 120.214 46.6518 119.874 46.2733C119.534 45.8949 119.078 45.7056 118.506 45.7056C118.118 45.7056 117.763 45.7978 117.443 45.9822C117.133 46.1569 116.866 46.4189 116.643 46.7682V52.1974H115.565Z" fill="#3FA652"/>
</g>
<g clip-path="url(#clip0_2_2)">
<g filter="url(#filter3_d_2_2)">
<path d="M31.976 45.3836C25.1763 43.5616 19.0819 40.6919 14.8158 37.3035C10.4236 33.8149 8.4663 30.1709 9.30443 27.0429C10.1426 23.915 13.6596 21.7378 19.2077 20.9127C24.5965 20.1113 31.3093 20.6732 38.1089 22.4952C44.9085 24.3172 51.003 27.1869 55.269 30.5753C59.6613 34.0639 61.6186 37.7079 60.7804 40.8359C59.9423 43.9638 56.4253 46.141 50.8772 46.9661C45.4884 47.7675 38.7756 47.2055 31.976 45.3836V45.3836ZM37.8019 23.6408C24.367 20.0409 12.1988 21.7319 10.6771 27.4107C9.15548 33.0896 18.848 40.6382 32.2829 44.238C45.7178 47.8379 57.8861 46.1469 59.4077 40.4681C60.9294 34.7892 51.2368 27.2406 37.8019 23.6408V23.6408Z" fill="#3FA652"/>
</g>
<g filter="url(#filter4_d_2_2)">
<path d="M46.6338 31.415C48.1146 38.2969 48.3414 45.0294 47.2724 50.3715C46.172 55.8716 43.8222 59.2758 40.6564 59.957C37.4905 60.6383 33.9486 58.5019 30.6832 53.9412C27.5115 49.5116 24.9491 43.2817 23.4682 36.3998C21.9873 29.5178 21.7605 22.7853 22.8295 17.4432C23.93 11.9431 26.2797 8.53891 29.4456 7.85768C32.6114 7.17645 36.1534 9.31285 39.4187 13.8735C42.5904 18.3031 45.1529 24.533 46.6338 31.415V31.415ZM24.6276 36.1503C27.5536 49.7478 34.6098 59.8045 40.3574 58.5677C46.1051 57.3309 48.4003 45.262 45.4743 31.6644C42.5484 18.0669 35.4921 8.01021 29.7445 9.247C23.9969 10.4838 21.7017 22.5527 24.6276 36.1503V36.1503Z" fill="#3FA652"/>
</g>
<g filter="url(#filter5_d_2_2)">
<path d="M43.0009 42.6922C37.7814 47.4156 32.0643 50.9782 26.9034 52.7236C21.5899 54.5206 17.4669 54.1877 15.2941 51.7866C13.1212 49.3856 13.2004 45.2499 15.5173 40.1417C17.7676 35.1802 21.8816 29.8461 27.1012 25.1226C32.3207 20.3991 38.0378 16.8365 43.1987 15.0912C48.5121 13.2942 52.6351 13.627 54.808 16.0281C56.9809 18.4292 56.9017 22.5648 54.5847 27.673C52.3344 32.6346 48.2204 37.9687 43.0009 42.6922ZM27.8969 26.0019C17.5841 35.3347 12.4029 46.4739 16.3478 50.8331C20.2927 55.1923 31.8922 51.1455 42.2051 41.8128C52.518 32.4801 57.6992 21.3409 53.7543 16.9817C49.8094 12.6225 38.2098 16.6692 27.8969 26.0019Z" fill="#3FA652"/>
</g>
<g filter="url(#filter6_d_2_2)">
<path d="M38.837 34.0943C38.7324 36.1921 36.9469 37.8078 34.8491 37.7032C32.7514 37.5985 31.1356 35.8131 31.2403 33.7153C31.3449 31.6175 33.1304 30.0017 35.2282 30.1064C37.3259 30.2111 38.9417 31.9965 38.837 34.0943Z" fill="#B1C0B4"/>
</g>
<g filter="url(#filter7_d_2_2)">
<path d="M54.7363 15.3691C54.6616 16.8654 53.3881 18.0179 51.8918 17.9432C50.3955 17.8686 49.243 16.595 49.3176 15.0987C49.3923 13.6024 50.6658 12.4499 52.1621 12.5246C53.6585 12.5992 54.8109 13.8727 54.7363 15.3691Z" fill="#B1C0B4"/>
</g>
<g filter="url(#filter8_d_2_2)">
<path d="M17.2317 23.0841C17.1571 24.5804 15.8836 25.7329 14.3872 25.6583C12.8909 25.5836 11.7384 24.3101 11.8131 22.8138C11.8877 21.3174 13.1613 20.1649 14.6576 20.2396C16.1539 20.3142 17.3064 21.5878 17.2317 23.0841Z" fill="#B1C0B4"/>
</g>
<g filter="url(#filter9_d_2_2)">
<path d="M48.8436 52.3546C48.769 53.8509 47.4954 55.0034 45.9991 54.9287C44.5028 54.8541 43.3503 53.5806 43.425 52.0842C43.4996 50.5879 44.7731 49.4354 46.2695 49.5101C47.7658 49.5847 48.9183 50.8583 48.8436 52.3546Z" fill="#B1C0B4"/>
</g>
</g>
<defs>
<filter id="filter0_d_2_2" x="59.1079" y="12.3763" width="82.8108" height="21.4202" filterUnits="userSpaceOnUse" color-interpolation-filters="sRGB">
<feFlood flood-opacity="0" result="BackgroundImageFix"/>
<feColorMatrix in="SourceAlpha" type="matrix" values="0 0 0 0 0 0 0 0 0 0 0 0 0 0 0 0 0 0 127 0" result="hardAlpha"/>
<feOffset/>
<feGaussianBlur stdDeviation="2"/>
<feComposite in2="hardAlpha" operator="out"/>
<feColorMatrix type="matrix" values="0 0 0 0 0.247059 0 0 0 0 0.65098 0 0 0 0 0.321569 0 0 0 1 0"/>
<feBlend mode="normal" in2="BackgroundImageFix" result="effect1_dropShadow_2_2"/>
<feBlend mode="normal" in="SourceGraphic" in2="effect1_dropShadow_2_2" result="shape"/>
</filter>
<filter id="filter1_d_2_2" x="63.4794" y="25.1415" width="58.0959" height="18.4654" filterUnits="userSpaceOnUse" color-interpolation-filters="sRGB">
<feFlood flood-opacity="0" result="BackgroundImageFix"/>
<feColorMatrix in="SourceAlpha" type="matrix" values="0 0 0 0 0 0 0 0 0 0 0 0 0 0 0 0 0 0 127 0" result="hardAlpha"/>
<feOffset/>
<feGaussianBlur stdDeviation="2"/>
<feComposite in2="hardAlpha" operator="out"/>
<feColorMatrix type="matrix" values="0 0 0 0 0.247059 0 0 0 0 0.65098 0 0 0 0 0.321569 0 0 0 1 0"/>
<feBlend mode="normal" in2="BackgroundImageFix" result="effect1_dropShadow_2_2"/>
<feBlend mode="normal" in="SourceGraphic" in2="effect1_dropShadow_2_2" result="shape"/>
</filter>
<filter id="filter2_d_2_2" x="68.6855" y="38.0085" width="61.5783" height="18.3344" filterUnits="userSpaceOnUse" color-interpolation-filters="sRGB">
<feFlood flood-opacity="0" result="BackgroundImageFix"/>
<feColorMatrix in="SourceAlpha" type="matrix" values="0 0 0 0 0 0 0 0 0 0 0 0 0 0 0 0 0 0 127 0" result="hardAlpha"/>
<feOffset/>
<feGaussianBlur stdDeviation="2"/>
<feComposite in2="hardAlpha" operator="out"/>
<feColorMatrix type="matrix" values="0 0 0 0 0.247059 0 0 0 0 0.65098 0 0 0 0 0.321569 0 0 0 1 0"/>
<feBlend mode="normal" in2="BackgroundImageFix" result="effect1_dropShadow_2_2"/>
<feBlend mode="normal" in="SourceGraphic" in2="effect1_dropShadow_2_2" result="shape"/>
</filter>
<filter id="filter3_d_2_2" x="4.11473" y="15.5567" width="61.8554" height="36.7654" filterUnits="userSpaceOnUse" color-interpolation-filters="sRGB">
<feFlood flood-opacity="0" result="BackgroundImageFix"/>
<feColorMatrix in="SourceAlpha" type="matrix" values="0 0 0 0 0 0 0 0 0 0 0 0 0 0 0 0 0 0 127 0" result="hardAlpha"/>
<feOffset/>
<feGaussianBlur stdDeviation="2.5"/>
<feComposite in2="hardAlpha" operator="out"/>
<feColorMatrix type="matrix" values="0 0 0 0 0 0 0 0 0 1 0 0 0 0 0.184466 0 0 0 1 0"/>
<feBlend mode="normal" in2="BackgroundImageFix" result="effect1_dropShadow_2_2"/>
<feBlend mode="normal" in="SourceGraphic" in2="effect1_dropShadow_2_2" result="shape"/>
</filter>
<filter id="filter4_d_2_2" x="17.1651" y="2.73344" width="35.7717" height="62.3478" filterUnits="userSpaceOnUse" color-interpolation-filters="sRGB">
<feFlood flood-opacity="0" result="BackgroundImageFix"/>
<feColorMatrix in="SourceAlpha" type="matrix" values="0 0 0 0 0 0 0 0 0 0 0 0 0 0 0 0 0 0 127 0" result="hardAlpha"/>
<feOffset/>
<feGaussianBlur stdDeviation="2.5"/>
<feComposite in2="hardAlpha" operator="out"/>
<feColorMatrix type="matrix" values="0 0 0 0 0 0 0 0 0 1 0 0 0 0 0.184466 0 0 0 1 0"/>
<feBlend mode="normal" in2="BackgroundImageFix" result="effect1_dropShadow_2_2"/>
<feBlend mode="normal" in="SourceGraphic" in2="effect1_dropShadow_2_2" result="shape"/>
</filter>
<filter id="filter5_d_2_2" x="8.72009" y="8.94939" width="52.6619" height="49.916" filterUnits="userSpaceOnUse" color-interpolation-filters="sRGB">
<feFlood flood-opacity="0" result="BackgroundImageFix"/>
<feColorMatrix in="SourceAlpha" type="matrix" values="0 0 0 0 0 0 0 0 0 0 0 0 0 0 0 0 0 0 127 0" result="hardAlpha"/>
<feOffset/>
<feGaussianBlur stdDeviation="2.5"/>
<feComposite in2="hardAlpha" operator="out"/>
<feColorMatrix type="matrix" values="0 0 0 0 0 0 0 0 0 1 0 0 0 0 0.184466 0 0 0 1 0"/>
<feBlend mode="normal" in2="BackgroundImageFix" result="effect1_dropShadow_2_2"/>
<feBlend mode="normal" in="SourceGraphic" in2="effect1_dropShadow_2_2" result="shape"/>
</filter>
<filter id="filter6_d_2_2" x="25.2355" y="24.1016" width="19.6064" height="19.6064" filterUnits="userSpaceOnUse" color-interpolation-filters="sRGB">
<feFlood flood-opacity="0" result="BackgroundImageFix"/>
<feColorMatrix in="SourceAlpha" type="matrix" values="0 0 0 0 0 0 0 0 0 0 0 0 0 0 0 0 0 0 127 0" result="hardAlpha"/>
<feOffset/>
<feGaussianBlur stdDeviation="3"/>
<feComposite in2="hardAlpha" operator="out"/>
<feColorMatrix type="matrix" values="0 0 0 0 0 0 0 0 0 1 0 0 0 0 0.184466 0 0 0 1 0"/>
<feBlend mode="normal" in2="BackgroundImageFix" result="effect1_dropShadow_2_2"/>
<feBlend mode="normal" in="SourceGraphic" in2="effect1_dropShadow_2_2" result="shape"/>
</filter>
<filter id="filter7_d_2_2" x="44.3142" y="7.52113" width="15.4255" height="15.4255" filterUnits="userSpaceOnUse" color-interpolation-filters="sRGB">
<feFlood flood-opacity="0" result="BackgroundImageFix"/>
<feColorMatrix in="SourceAlpha" type="matrix" values="0 0 0 0 0 0 0 0 0 0 0 0 0 0 0 0 0 0 127 0" result="hardAlpha"/>
<feOffset/>
<feGaussianBlur stdDeviation="2.5"/>
<feComposite in2="hardAlpha" operator="out"/>
<feColorMatrix type="matrix" values="0 0 0 0 0 0 0 0 0 1 0 0 0 0 0.184466 0 0 0 1 0"/>
<feBlend mode="normal" in2="BackgroundImageFix" result="effect1_dropShadow_2_2"/>
<feBlend mode="normal" in="SourceGraphic" in2="effect1_dropShadow_2_2" result="shape"/>
</filter>
<filter id="filter8_d_2_2" x="6.80965" y="15.2362" width="15.4255" height="15.4255" filterUnits="userSpaceOnUse" color-interpolation-filters="sRGB">
<feFlood flood-opacity="0" result="BackgroundImageFix"/>
<feColorMatrix in="SourceAlpha" type="matrix" values="0 0 0 0 0 0 0 0 0 0 0 0 0 0 0 0 0 0 127 0" result="hardAlpha"/>
<feOffset/>
<feGaussianBlur stdDeviation="2.5"/>
<feComposite in2="hardAlpha" operator="out"/>
<feColorMatrix type="matrix" values="0 0 0 0 0 0 0 0 0 1 0 0 0 0 0.184466 0 0 0 1 0"/>
<feBlend mode="normal" in2="BackgroundImageFix" result="effect1_dropShadow_2_2"/>
<feBlend mode="normal" in="SourceGraphic" in2="effect1_dropShadow_2_2" result="shape"/>
</filter>
<filter id="filter9_d_2_2" x="38.4215" y="44.5066" width="15.4255" height="15.4255" filterUnits="userSpaceOnUse" color-interpolation-filters="sRGB">
<feFlood flood-opacity="0" result="BackgroundImageFix"/>
<feColorMatrix in="SourceAlpha" type="matrix" values="0 0 0 0 0 0 0 0 0 0 0 0 0 0 0 0 0 0 127 0" result="hardAlpha"/>
<feOffset/>
<feGaussianBlur stdDeviation="2.5"/>
<feComposite in2="hardAlpha" operator="out"/>
<feColorMatrix type="matrix" values="0 0 0 0 0 0 0 0 0 1 0 0 0 0 0.184466 0 0 0 1 0"/>
<feBlend mode="normal" in2="BackgroundImageFix" result="effect1_dropShadow_2_2"/>
<feBlend mode="normal" in="SourceGraphic" in2="effect1_dropShadow_2_2" result="shape"/>
</filter>
<clipPath id="clip0_2_2">
<rect width="59.6839" height="54.4065" fill="white" transform="translate(14.0814) rotate(15)"/>
</clipPath>
</defs>
</svg>
