<svg width="40" height="36" viewBox="0 0 40 36" fill="none" xmlns="http://www.w3.org/2000/svg">
<path d="M14.076 31.4L10.788 24.668V32H9.924V23.6H11.22L14.088 29.564L16.944 23.6H18.24V32H17.364V24.656L14.076 31.4ZM24.9802 31.364C24.6442 31.612 24.2922 31.8 23.9242 31.928C23.5642 32.048 23.1682 32.108 22.7362 32.108C22.3042 32.108 21.8962 32.028 21.5122 31.868C21.1362 31.708 20.8082 31.488 20.5282 31.208C20.2562 30.928 20.0402 30.6 19.8802 30.224C19.7202 29.84 19.6402 29.428 19.6402 28.988C19.6402 28.556 19.7162 28.152 19.8682 27.776C20.0282 27.4 20.2402 27.072 20.5042 26.792C20.7682 26.512 21.0802 26.292 21.4402 26.132C21.8082 25.972 22.1962 25.892 22.6042 25.892C23.0042 25.892 23.3762 25.972 23.7202 26.132C24.0722 26.292 24.3722 26.512 24.6202 26.792C24.8762 27.072 25.0762 27.4 25.2202 27.776C25.3722 28.152 25.4482 28.556 25.4482 28.988V29.264H20.5162C20.5802 29.856 20.8242 30.348 21.2482 30.74C21.6722 31.132 22.1802 31.328 22.7722 31.328C23.0842 31.328 23.3882 31.28 23.6842 31.184C23.9802 31.088 24.2282 30.952 24.4282 30.776L24.9802 31.364ZM22.5802 26.672C22.0602 26.672 21.6082 26.848 21.2242 27.2C20.8482 27.552 20.6202 28.004 20.5402 28.556H24.5602C24.4802 28.028 24.2522 27.584 23.8762 27.224C23.5082 26.856 23.0762 26.672 22.5802 26.672ZM26.6896 32V25.988H27.5776V26.696C27.8096 26.424 28.0856 26.22 28.4056 26.084C28.7256 25.94 29.0816 25.868 29.4736 25.868C30.1536 25.868 30.7096 26.084 31.1416 26.516C31.5736 26.948 31.7896 27.508 31.7896 28.196V32H30.9136V28.376C30.9136 27.848 30.7616 27.428 30.4576 27.116C30.1536 26.804 29.7456 26.648 29.2336 26.648C28.8736 26.648 28.5496 26.728 28.2616 26.888C27.9816 27.048 27.7536 27.276 27.5776 27.572V32H26.6896ZM34.0689 25.988V29.612C34.0689 30.14 34.2209 30.56 34.5249 30.872C34.8289 31.184 35.2369 31.34 35.7489 31.34C36.1089 31.34 36.4289 31.26 36.7089 31.1C36.9969 30.932 37.2289 30.7 37.4049 30.404V25.988H38.2929V32H37.4049V31.304C37.1729 31.576 36.8969 31.78 36.5769 31.916C36.2649 32.052 35.9129 32.12 35.5209 32.12C34.8329 32.12 34.2729 31.904 33.8409 31.472C33.4089 31.04 33.1929 30.48 33.1929 29.792V25.988H34.0689Z" fill="#3FA652"/>
<rect x="6.6665" width="32" height="4" rx="2" fill="#3FA652"/>
<rect y="8" width="38.6667" height="4" rx="2" fill="#3FA652"/>
<rect x="13.3335" y="16" width="25.3333" height="4" rx="2" fill="#3FA652"/>
</svg>
