<svg width="43" height="35" viewBox="0 0 43 35" fill="none" xmlns="http://www.w3.org/2000/svg">
<g filter="url(#filter0_d_4_29)">
<path d="M15.076 30.4L11.788 23.668V31H10.924V22.6H12.22L15.088 28.564L17.944 22.6H19.24V31H18.364V23.656L15.076 30.4ZM25.9802 30.364C25.6442 30.612 25.2922 30.8 24.9242 30.928C24.5642 31.048 24.1682 31.108 23.7362 31.108C23.3042 31.108 22.8962 31.028 22.5122 30.868C22.1362 30.708 21.8082 30.488 21.5282 30.208C21.2562 29.928 21.0402 29.6 20.8802 29.224C20.7202 28.84 20.6402 28.428 20.6402 27.988C20.6402 27.556 20.7162 27.152 20.8682 26.776C21.0282 26.4 21.2402 26.072 21.5042 25.792C21.7682 25.512 22.0802 25.292 22.4402 25.132C22.8082 24.972 23.1962 24.892 23.6042 24.892C24.0042 24.892 24.3762 24.972 24.7202 25.132C25.0722 25.292 25.3722 25.512 25.6202 25.792C25.8762 26.072 26.0762 26.4 26.2202 26.776C26.3722 27.152 26.4482 27.556 26.4482 27.988V28.264H21.5162C21.5802 28.856 21.8242 29.348 22.2482 29.74C22.6722 30.132 23.1802 30.328 23.7722 30.328C24.0842 30.328 24.3882 30.28 24.6842 30.184C24.9802 30.088 25.2282 29.952 25.4282 29.776L25.9802 30.364ZM23.5802 25.672C23.0602 25.672 22.6082 25.848 22.2242 26.2C21.8482 26.552 21.6202 27.004 21.5402 27.556H25.5602C25.4802 27.028 25.2522 26.584 24.8762 26.224C24.5082 25.856 24.0762 25.672 23.5802 25.672ZM27.6896 31V24.988H28.5776V25.696C28.8096 25.424 29.0856 25.22 29.4056 25.084C29.7256 24.94 30.0816 24.868 30.4736 24.868C31.1536 24.868 31.7096 25.084 32.1416 25.516C32.5736 25.948 32.7896 26.508 32.7896 27.196V31H31.9136V27.376C31.9136 26.848 31.7616 26.428 31.4576 26.116C31.1536 25.804 30.7456 25.648 30.2336 25.648C29.8736 25.648 29.5496 25.728 29.2616 25.888C28.9816 26.048 28.7536 26.276 28.5776 26.572V31H27.6896ZM35.0689 24.988V28.612C35.0689 29.14 35.2209 29.56 35.5249 29.872C35.8289 30.184 36.2369 30.34 36.7489 30.34C37.1089 30.34 37.4289 30.26 37.7089 30.1C37.9969 29.932 38.2289 29.7 38.4049 29.404V24.988H39.2929V31H38.4049V30.304C38.1729 30.576 37.8969 30.78 37.5769 30.916C37.2649 31.052 36.9129 31.12 36.5209 31.12C35.8329 31.12 35.2729 30.904 34.8409 30.472C34.4089 30.04 34.1929 29.48 34.1929 28.792V24.988H35.0689Z" fill="#3FA652"/>
</g>
<g filter="url(#filter1_d_4_29)">
<rect x="8.66667" y="2" width="32" height="3" rx="1.5" fill="#3FA652"/>
<rect x="2" y="9" width="38.6667" height="3" rx="1.5" fill="#3FA652"/>
<rect x="15.3333" y="16" width="25.3333" height="3" rx="1.5" fill="#3FA652"/>
</g>
<defs>
<filter id="filter0_d_4_29" x="7.924" y="19.6" width="34.3689" height="14.52" filterUnits="userSpaceOnUse" color-interpolation-filters="sRGB">
<feFlood flood-opacity="0" result="BackgroundImageFix"/>
<feColorMatrix in="SourceAlpha" type="matrix" values="0 0 0 0 0 0 0 0 0 0 0 0 0 0 0 0 0 0 127 0" result="hardAlpha"/>
<feOffset/>
<feGaussianBlur stdDeviation="1.5"/>
<feComposite in2="hardAlpha" operator="out"/>
<feColorMatrix type="matrix" values="0 0 0 0 0.247059 0 0 0 0 0.65098 0 0 0 0 0.321569 0 0 0 1 0"/>
<feBlend mode="normal" in2="BackgroundImageFix" result="effect1_dropShadow_4_29"/>
<feBlend mode="normal" in="SourceGraphic" in2="effect1_dropShadow_4_29" result="shape"/>
</filter>
<filter id="filter1_d_4_29" x="0" y="0" width="42.6667" height="21" filterUnits="userSpaceOnUse" color-interpolation-filters="sRGB">
<feFlood flood-opacity="0" result="BackgroundImageFix"/>
<feColorMatrix in="SourceAlpha" type="matrix" values="0 0 0 0 0 0 0 0 0 0 0 0 0 0 0 0 0 0 127 0" result="hardAlpha"/>
<feOffset/>
<feGaussianBlur stdDeviation="1"/>
<feComposite in2="hardAlpha" operator="out"/>
<feColorMatrix type="matrix" values="0 0 0 0 0 0 0 0 0 1 0 0 0 0 0.184466 0 0 0 1 0"/>
<feBlend mode="normal" in2="BackgroundImageFix" result="effect1_dropShadow_4_29"/>
<feBlend mode="normal" in="SourceGraphic" in2="effect1_dropShadow_4_29" result="shape"/>
</filter>
</defs>
</svg>
